<svg width="72" height="72" viewBox="0 0 72 72" fill="none" xmlns="http://www.w3.org/2000/svg">
<rect width="72" height="72" rx="8" fill="url(#paint0_linear_3501_1324)"/>
<path d="M43.3512 25.6982C44.1323 25.6982 44.8215 26.3874 44.8215 27.2144V44.812C44.8215 45.6391 44.1323 46.2823 43.3512 46.2823H25.6617C24.8806 46.2823 24.2373 45.6391 24.2373 44.812V27.2144C24.2373 26.3874 24.8806 25.6982 25.6617 25.6982H43.3512ZM30.4401 43.3417V33.5551H27.4076V43.3417H30.4401ZM28.9239 32.1766C29.8888 32.1766 30.6699 31.3956 30.6699 30.4307C30.6699 29.4658 29.8888 28.6387 28.9239 28.6387C27.913 28.6387 27.132 29.4658 27.132 30.4307C27.132 31.3956 27.913 32.1766 28.9239 32.1766ZM41.8809 43.3417V37.9659C41.8809 35.347 41.2836 33.2794 38.2051 33.2794C36.7348 33.2794 35.724 34.1064 35.3105 34.8875H35.2645V33.5551H32.3699V43.3417H35.4024V38.5173C35.4024 37.2308 35.6321 35.9902 37.2402 35.9902C38.8024 35.9902 38.8024 37.4605 38.8024 38.5632V43.3417H41.8809Z" fill="white"/>
<defs>
<linearGradient id="paint0_linear_3501_1324" x1="36" y1="0" x2="36" y2="72" gradientUnits="userSpaceOnUse">
<stop stop-color="#4E73FF"/>
<stop offset="1" stop-color="#506CCF"/>
</linearGradient>
</defs>
</svg>
