<svg width="48" height="48" viewBox="0 0 48 48" fill="none" xmlns="http://www.w3.org/2000/svg">
<rect x="0.5" y="0.5" width="47" height="47" rx="23.5" fill="#CF50AC"/>
<path d="M24 20.4062C25.9688 20.4062 27.5938 22.0312 27.5938 24C27.5938 26 25.9688 27.5938 24 27.5938C22 27.5938 20.4062 26 20.4062 24C20.4062 22.0312 22 20.4062 24 20.4062ZM24 26.3438C25.2812 26.3438 26.3125 25.3125 26.3125 24C26.3125 22.7188 25.2812 21.6875 24 21.6875C22.6875 21.6875 21.6562 22.7188 21.6562 24C21.6562 25.3125 22.7188 26.3438 24 26.3438ZM28.5625 20.2812C28.5625 20.75 28.1875 21.125 27.7188 21.125C27.25 21.125 26.875 20.75 26.875 20.2812C26.875 19.8125 27.25 19.4375 27.7188 19.4375C28.1875 19.4375 28.5625 19.8125 28.5625 20.2812ZM30.9375 21.125C31 22.2812 31 25.75 30.9375 26.9062C30.875 28.0312 30.625 29 29.8125 29.8438C29 30.6562 28 30.9062 26.875 30.9688C25.7188 31.0312 22.25 31.0312 21.0938 30.9688C19.9688 30.9062 19 30.6562 18.1562 29.8438C17.3438 29 17.0938 28.0312 17.0312 26.9062C16.9688 25.75 16.9688 22.2812 17.0312 21.125C17.0938 20 17.3438 19 18.1562 18.1875C19 17.375 19.9688 17.125 21.0938 17.0625C22.25 17 25.7188 17 26.875 17.0625C28 17.125 29 17.375 29.8125 18.1875C30.625 19 30.875 20 30.9375 21.125ZM29.4375 28.125C29.8125 27.2188 29.7188 25.0312 29.7188 24C29.7188 23 29.8125 20.8125 29.4375 19.875C29.1875 19.2812 28.7188 18.7812 28.125 18.5625C27.1875 18.1875 25 18.2812 24 18.2812C22.9688 18.2812 20.7812 18.1875 19.875 18.5625C19.25 18.8125 18.7812 19.2812 18.5312 19.875C18.1562 20.8125 18.25 23 18.25 24C18.25 25.0312 18.1562 27.2188 18.5312 28.125C18.7812 28.75 19.25 29.2188 19.875 29.4688C20.7812 29.8438 22.9688 29.75 24 29.75C25 29.75 27.1875 29.8438 28.125 29.4688C28.7188 29.2188 29.2188 28.75 29.4375 28.125Z" fill="white"/>
<rect x="0.5" y="0.5" width="47" height="47" rx="23.5" stroke="#CF50AC"/>
</svg>
