<svg width="72" height="72" viewBox="0 0 72 72" fill="none" xmlns="http://www.w3.org/2000/svg">
<rect width="72" height="72" rx="8" fill="url(#paint0_linear_3501_342)"/>
<path d="M41.6971 27.7306C43.6268 29.6604 44.8215 32.1875 44.8215 34.9443C44.8215 40.5498 40.1349 45.1445 34.4834 45.1445C32.7834 45.1445 31.1293 44.685 29.6131 43.9039L24.2373 45.2823L25.6617 39.9984C24.7887 38.4822 24.2833 36.7362 24.2833 34.8983C24.2833 29.2928 28.8779 24.6982 34.4834 24.6982C37.2402 24.6982 39.8133 25.8009 41.6971 27.7306ZM34.4834 43.3985C39.17 43.3985 43.0755 39.5849 43.0755 34.9443C43.0755 32.6469 42.1106 30.5334 40.5025 28.9253C38.8943 27.3171 36.7808 26.4441 34.5294 26.4441C29.8428 26.4441 26.0292 30.2577 26.0292 34.8983C26.0292 36.5065 26.4887 38.0687 27.3157 39.4471L27.5455 39.7687L26.6725 42.8931L29.8888 42.0201L30.1644 42.2039C31.4969 42.985 32.9672 43.3985 34.4834 43.3985ZM39.17 37.0578C39.3997 37.1957 39.5835 37.2416 39.6295 37.3795C39.7214 37.4714 39.7214 37.9768 39.4916 38.5741C39.2619 39.1714 38.2511 39.7227 37.7916 39.7687C36.9646 39.9065 36.3213 39.8606 34.7132 39.1254C32.1402 38.0227 30.4861 35.4497 30.3482 35.3119C30.2104 35.1281 29.3374 33.9335 29.3374 32.6469C29.3374 31.4064 29.9807 30.8091 30.2104 30.5334C30.4401 30.2577 30.7158 30.2118 30.8996 30.2118C31.0374 30.2118 31.2212 30.2118 31.3591 30.2118C31.5428 30.2118 31.7266 30.1658 31.9564 30.6712C32.1402 31.1766 32.6915 32.4172 32.7375 32.5551C32.7834 32.6929 32.8294 32.8307 32.7375 33.0145C32.278 33.9794 31.7266 33.9335 32.0023 34.3929C33.0131 36.093 33.978 36.6903 35.4943 37.4254C35.724 37.5632 35.8618 37.5173 36.0456 37.3795C36.1835 37.1957 36.6889 36.5984 36.8267 36.3686C37.0105 36.093 37.1943 36.1389 37.424 36.2308C37.6538 36.3227 38.8943 36.92 39.17 37.0578Z" fill="white"/>
<defs>
<linearGradient id="paint0_linear_3501_342" x1="36" y1="0" x2="36" y2="72" gradientUnits="userSpaceOnUse">
<stop stop-color="#50C571"/>
<stop offset="1" stop-color="#50CF9A"/>
</linearGradient>
</defs>
</svg>
